<?xml version="1.0" encoding="utf-8"?>
<!-- Generator: Adobe Illustrator 15.0.0, SVG Export Plug-In . SVG Version: 6.00 Build 0)  -->
<!DOCTYPE svg PUBLIC "-//W3C//DTD SVG 1.1//EN" "http://www.w3.org/Graphics/SVG/1.1/DTD/svg11.dtd">
<svg version="1.1" id="Layer_1" xmlns="http://www.w3.org/2000/svg" xmlns:xlink="http://www.w3.org/1999/xlink" x="0px" y="0px"
	 width="77.273px" height="100px" viewBox="0 0 77.273 100" enable-background="new 0 0 77.273 100" xml:space="preserve">
<g>
	
		<image overflow="visible" opacity="0.75" width="53" height="53" xlink:href="778979F8.png"  transform="matrix(1 0 0 1 12.1365 23.5)">
	</image>
	<g>
		<path fill="#FFFFFF" d="M22.629,33.993c-8.875,8.875-8.875,23.265,0,32.141c8.876,8.876,23.266,8.876,32.142,0
			c8.875-8.876,8.875-23.266,0-32.141C45.894,25.117,31.505,25.117,22.629,33.993z M51.556,62.92c-7.101,7.1-18.613,7.1-25.713,0
			c-7.101-7.101-7.101-18.613,0-25.713c7.1-7.1,18.612-7.1,25.713,0C58.656,44.307,58.656,55.819,51.556,62.92z"/>
	</g>
</g>
<g>
	
		<image overflow="visible" opacity="0.75" width="32" height="32" xlink:href="778979F9.png"  transform="matrix(1 0 0 1 23.1365 34.5)">
	</image>
	<g>
		<path fill="#FFFFFF" d="M48.927,47.791h-7.954v-7.955c0-1.255-1.018-2.273-2.272-2.273c-1.256,0-2.273,1.018-2.273,2.273v7.955
			h-7.954c-1.255,0-2.272,1.018-2.272,2.272c0,1.255,1.018,2.273,2.272,2.273h7.954v7.955c0,1.254,1.018,2.271,2.273,2.271
			c1.255,0,2.272-1.018,2.272-2.271v-7.955h7.954c1.256,0,2.273-1.018,2.273-2.273C51.2,48.808,50.182,47.791,48.927,47.791z"/>
	</g>
</g>
</svg>
